<svg width="510" height="103" viewBox="0 0 510 103" fill="none" xmlns="http://www.w3.org/2000/svg">
<path d="M81.7315 0C78.97 0 76.7315 2.23858 76.7315 5V26.2535C76.7315 29.0149 74.4929 31.2535 71.7315 31.2535H41.5002C40.1625 31.2535 38.8807 31.7895 37.9411 32.7417L28.4409 42.3697C27.5177 43.3053 27 44.567 27 45.8815V70.0834C27 72.8449 29.2386 75.0835 32 75.0835H34.4095C37.171 75.0835 39.4095 72.8449 39.4095 70.0835V48.83C39.4095 46.0685 41.6481 43.83 44.4095 43.83H71.7315C74.4929 43.83 76.7315 46.0685 76.7315 48.83V70.0834C76.7315 72.8449 78.9701 75.0835 81.7315 75.0835H84.141C86.9024 75.0835 89.141 72.8449 89.141 70.0835V5C89.141 2.23857 86.9024 0 84.141 0H81.7315Z" fill="#FFC107"/>
<path d="M140.77 0C130.413 0 121.642 3.75417 114.458 11.0748C107.18 18.3954 103.448 27.2177 103.448 37.5417C103.448 47.9596 107.18 56.688 114.458 64.0086C121.736 71.3293 130.413 75.0835 140.77 75.0835C151.127 75.0835 159.804 71.3293 167.082 64.0086C174.453 56.7819 178.185 47.9596 178.185 37.5417C178.185 27.2177 174.453 18.3954 167.082 11.0748C159.804 3.75417 151.127 0 140.77 0ZM140.77 12.5765C147.581 12.5765 153.459 15.0167 158.311 19.8971C163.163 24.7775 165.589 30.6904 165.589 37.5417C165.589 44.3931 163.256 50.3059 158.311 55.2802C153.459 60.1606 147.581 62.507 140.77 62.507C133.959 62.507 127.987 60.1606 123.135 55.2802C118.283 50.3998 115.951 44.3931 115.951 37.5417C115.951 30.6904 118.283 24.7775 123.135 19.8971C128.08 14.9228 133.959 12.5765 140.77 12.5765Z" fill="#FFC107"/>
<path d="M198.473 0C195.711 0 193.473 2.23858 193.473 5V12.5765V70.0834C193.473 72.8449 195.711 75.0835 198.473 75.0835H200.975C203.737 75.0835 205.975 72.8449 205.975 70.0835V17.5765C205.975 14.8151 208.214 12.5765 210.975 12.5765H225.795C228.556 12.5765 230.795 10.3379 230.795 7.57648V5C230.795 2.23858 228.556 0 225.795 0H198.473Z" fill="#FFC107"/>
<path d="M295.674 0C292.913 0 290.674 2.23858 290.674 5V33.682C290.674 38.0183 285.532 40.2989 282.318 37.388L249.393 7.56824C246.179 4.65736 241.036 6.93796 241.036 11.2742V16.7393C241.036 18.1523 241.634 19.4994 242.682 20.4473L303.014 75.0205C303.041 75.0447 303.084 75.0257 303.084 74.9896V74.9896V74.8958V5C303.084 2.23858 300.845 0 298.084 0H295.674Z" fill="#FFC107"/>
<path d="M346.596 76C339.094 76 333.202 73.7239 328.919 69.1717C324.667 64.589 322.541 58.2954 322.541 50.2909C322.541 42.2253 324.531 35.8095 328.509 31.0434C332.488 26.2468 337.864 23.8485 344.637 23.8485C350.924 23.8485 355.936 25.8955 359.672 29.9894C363.408 34.0527 365.276 39.5673 365.276 46.533V46.533C365.276 49.2918 363.039 51.5282 360.28 51.5282H336.15C333.336 51.5282 331.003 53.8709 331.565 56.6276C332.232 59.8971 333.491 62.5356 335.343 64.5432C338.077 67.5067 341.949 68.9884 346.961 68.9884C349.634 68.9884 352.17 68.7593 354.569 68.301C355.713 68.068 356.95 67.7342 358.281 67.2997C360.554 66.5575 362.998 68.1623 362.998 70.5534V70.5534C362.998 71.8842 362.21 73.0984 360.966 73.5704C358.952 74.3341 357.032 74.8996 355.207 75.2668C352.777 75.7556 349.907 76 346.596 76ZM344.546 30.5851C340.628 30.5851 337.53 31.853 335.252 34.3888C333.972 35.8139 332.984 37.5525 332.289 39.6048C331.344 42.3954 333.743 44.9749 336.69 44.9749H351.6C354.387 44.9749 356.734 42.666 356.121 39.9477C355.599 37.6329 354.702 35.7341 353.43 34.2513C351.334 31.8072 348.373 30.5851 344.546 30.5851Z" fill="#FFC107"/>
<path d="M421.653 75.0835C419.449 75.0835 417.505 73.6404 416.867 71.5308L409.377 46.7622C408.594 44.431 407.454 40.0448 405.955 33.6036C405.931 33.5006 405.839 33.4264 405.734 33.4264V33.4264C405.626 33.4264 405.533 33.5023 405.511 33.6071C404.251 39.4746 403.14 43.8901 402.178 46.8538L394.311 71.5984C393.651 73.6738 391.724 75.0835 389.546 75.0835H387.729C385.474 75.0835 383.498 73.5739 382.905 71.3982L371.594 29.896C370.89 27.3118 372.835 24.7651 375.514 24.7651V24.7651C377.371 24.7651 378.992 26.0257 379.451 27.8247C382.227 38.7006 384.366 47.0906 385.868 52.9947C387.5 59.2902 388.479 63.7791 388.807 66.4615C388.82 66.5702 388.912 66.6512 389.022 66.6512V66.6512C389.122 66.6512 389.21 66.5814 389.232 66.4831L389.832 63.8099C390.773 59.4411 391.685 55.8818 392.565 53.1322L400.351 28.2707C401.005 26.1849 402.937 24.7651 405.123 24.7651H406.671C408.873 24.7651 410.816 26.2057 411.456 28.3128L418.99 53.1322C419.293 54.2015 419.612 55.3472 419.946 56.5692C420.311 57.7607 420.645 58.9522 420.949 60.1438C421.252 61.3047 421.526 62.4504 421.769 63.5808C421.993 64.5982 422.166 65.5242 422.287 66.3586C422.304 66.4737 422.402 66.5596 422.518 66.5596V66.5596C422.636 66.5596 422.736 66.4719 422.751 66.3548C423.063 63.952 424.163 59.0403 426.051 51.6199L432.283 27.7681C432.745 25.9991 434.343 24.7651 436.171 24.7651V24.7651C438.826 24.7651 440.752 27.2943 440.045 29.8537L428.568 71.4144C427.969 73.5821 425.997 75.0835 423.748 75.0835H421.653Z" fill="#FFC107"/>
<path d="M483 61.1978C483 65.9027 481.254 69.5536 477.761 72.1505C474.268 74.7168 469.363 76 463.045 76C457.441 76 452.814 75.2379 449.164 73.7137C448.006 73.2302 447.327 72.0565 447.327 70.8019V70.8019C447.327 68.2727 449.989 66.6087 452.38 67.434C456.09 68.7147 459.706 69.355 463.227 69.355C467.358 69.355 470.365 68.6829 472.248 67.3386C474.131 65.9944 475.073 64.1918 475.073 61.931C475.073 59.9452 474.162 58.2648 472.339 56.89C470.547 55.5152 467.343 53.9418 462.726 52.1698C458.018 50.3367 454.708 48.7786 452.794 47.4954C450.881 46.1817 449.469 44.7152 448.557 43.096C447.677 41.4768 447.236 39.5062 447.236 37.1843C447.236 33.0598 448.907 29.8061 452.248 27.4231C455.589 25.04 460.175 23.8485 466.007 23.8485C470.459 23.8485 474.687 24.5432 478.691 25.9324C480.54 26.5736 481.344 28.6742 480.58 30.4751V30.4751C479.803 32.3087 477.692 33.1493 475.807 32.5057C472.058 31.2253 468.609 30.5851 465.46 30.5851C462.058 30.5851 459.476 31.1351 457.715 32.2349C455.953 33.3042 455.072 34.786 455.072 36.6802C455.072 38.5133 455.832 40.0408 457.35 41.2629C458.869 42.4544 462.407 44.1195 467.966 46.2581C472.127 47.8162 475.194 49.2674 477.168 50.6117C479.173 51.9559 480.646 53.4682 481.588 55.1486C482.529 56.8289 483 58.8453 483 61.1978Z" fill="#FFC107"/>
<path d="M157.25 41.3333C157.25 50.4278 150.094 57.5833 140.999 57.5833C131.904 57.5833 124.75 50.4278 124.75 41.3333C124.75 32.2388 139.352 24.65 137.706 16.4167C141 16.4167 157.25 28.1611 157.25 41.3333Z" fill="#DD2C00"/>
<path d="M150.75 45.6667C150.75 37.4346 141 29.4167 141 29.4167C141 36.0034 131.25 39.0812 131.25 45.6667C131.25 51.1223 135.543 55.4167 141 55.4167C146.457 55.4167 150.75 51.1223 150.75 45.6667Z" fill="#FF5722"/>
<path d="M135.582 49.3564C135.583 45.6667 141 43.5554 141 40.25C141 40.25 146.415 44.4014 146.415 49.3564C146.415 52.0918 143.992 54.3118 140.999 54.3118C138.006 54.3118 135.581 52.093 135.582 49.3564Z" fill="#FFC107"/>
</svg>
